<svg width="18" height="24" viewBox="0 0 18 24" fill="none" xmlns="http://www.w3.org/2000/svg">
<path d="M2 14H16L14.5 9.5H3.5L2 14ZM14.5 19C14.8978 19 15.2794 18.842 15.5607 18.5607C15.842 18.2794 16 17.8978 16 17.5C16 17.1022 15.842 16.7206 15.5607 16.4393C15.2794 16.158 14.8978 16 14.5 16C14.1022 16 13.7206 16.158 13.4393 16.4393C13.158 16.7206 13 17.1022 13 17.5C13 17.8978 13.158 18.2794 13.4393 18.5607C13.7206 18.842 14.1022 19 14.5 19ZM3.5 19C3.89782 19 4.27936 18.842 4.56066 18.5607C4.84196 18.2794 5 17.8978 5 17.5C5 17.1022 4.84196 16.7206 4.56066 16.4393C4.27936 16.158 3.89782 16 3.5 16C3.10218 16 2.72064 16.158 2.43934 16.4393C2.15804 16.7206 2 17.1022 2 17.5C2 17.8978 2.15804 18.2794 2.43934 18.5607C2.72064 18.842 3.10218 19 3.5 19ZM15.92 9L18 15V23C18 23.2652 17.8946 23.5196 17.7071 23.7071C17.5196 23.8946 17.2652 24 17 24H16C15.7348 24 15.4804 23.8946 15.2929 23.7071C15.1054 23.5196 15 23.2652 15 23V22H3V23C3 23.2652 2.89464 23.5196 2.70711 23.7071C2.51957 23.8946 2.26522 24 2 24H1C0.734784 24 0.48043 23.8946 0.292893 23.7071C0.105357 23.5196 0 23.2652 0 23V15L2.08 9C2.28 8.42 2.85 8 3.5 8H14.5C15.15 8 15.72 8.42 15.92 9ZM9 0C11.12 0 13.15 0.86 14.65 2.35L13.23 3.77C12.109 2.64471 10.5884 2.00844 9 2C7.42 2 5.89 2.65 4.77 3.77L3.36 2.35C4.85479 0.850947 6.88304 0.00584328 9 0M9 4C10.06 4 11.07 4.44 11.82 5.18L10.4 6.6C10.03 6.23 9.53 6 9 6C8.5 6 7.97 6.23 7.6 6.6L6.18 5.18C6.93 4.44 7.94 4 9 4Z" fill="#0065A0"/>
</svg>
